<?xml version="1.0" encoding="UTF-8" standalone="no"?>
<!DOCTYPE svg PUBLIC "-//W3C//DTD SVG 1.1//EN" "http://www.w3.org/Graphics/SVG/1.1/DTD/svg11.dtd">
<svg xmlns="http://www.w3.org/2000/svg" version="1.1" viewBox="0.00 0.00 433.00 482.00">
<g stroke-width="2.00" fill="none" stroke-linecap="butt">
<path stroke="#f0e5d3" vector-effect="non-scaling-stroke" d="
  M 141.84 117.30
  Q 141.55 118.28 141.40 116.33
  Q 141.40 116.27 141.39 116.33
  Q 141.05 117.82 141.40 119.33
  Q 141.52 119.81 141.10 120.08
  C 138.60 121.64 138.34 125.17 137.15 127.65
  C 133.75 134.69 132.02 141.13 133.79 148.26
  C 134.93 152.85 135.83 157.80 137.84 161.87
  Q 141.49 169.32 147.14 175.43
  C 149.40 177.87 150.19 180.43 150.96 183.46"
/>
<path stroke="#929596" vector-effect="non-scaling-stroke" d="
  M 150.96 183.46
  C 153.40 194.00 157.74 204.48 162.34 214.34"
/>
<path stroke="#e6d6c6" vector-effect="non-scaling-stroke" d="
  M 162.34 214.34
  Q 163.02 218.25 162.25 222.42
  Q 161.47 226.65 161.45 228.67
  C 161.42 234.58 161.69 238.95 158.90 244.94
  C 155.81 251.59 150.85 252.13 144.76 254.20"
/>
<path stroke="#91a8be" vector-effect="non-scaling-stroke" d="
  M 144.76 254.20
  C 121.80 259.50 97.79 263.57 76.57 273.36
  C 44.62 288.10 22.88 318.89 21.87 354.74
  Q 21.60 364.21 21.97 367.50
  Q 23.85 384.35 32.39 398.91
  C 40.22 412.25 53.50 421.31 67.60 427.62
  Q 74.56 430.74 80.20 435.71
  Q 84.72 439.68 86.91 441.04
  Q 95.33 446.26 104.77 449.50
  Q 125.77 456.70 147.76 459.76
  C 160.82 461.57 178.29 463.55 193.25 463.94
  C 202.40 464.18 213.56 465.34 223.77 464.75
  Q 236.06 464.05 239.25 463.97
  Q 278.08 463.07 314.87 454.39
  Q 331.58 450.44 347.70 441.71
  Q 349.93 440.51 356.74 433.74
  C 357.58 432.90 359.19 431.80 360.51 431.27
  Q 374.55 425.65 386.82 416.80
  C 409.37 400.55 416.67 371.64 413.10 346.63
  C 408.91 317.21 393.04 291.92 366.73 277.52
  C 345.02 265.63 320.67 260.53 296.33 255.83"
/>
<path stroke="#e6d6c6" vector-effect="non-scaling-stroke" d="
  M 296.33 255.83
  Q 289.58 253.81 282.60 251.27
  C 273.76 248.06 273.43 228.49 272.78 220.76
  C 272.61 218.71 273.03 216.78 273.26 214.72"
/>
<path stroke="#929596" vector-effect="non-scaling-stroke" d="
  M 273.26 214.72
  Q 275.05 210.37 277.09 206.03
  C 280.75 198.25 282.97 189.98 285.17 181.85"
/>
<path stroke="#f0e5d3" vector-effect="non-scaling-stroke" d="
  M 285.17 181.85
  C 286.02 175.35 290.29 173.51 293.42 168.75
  Q 299.63 159.33 302.03 146.02
  Q 304.24 133.77 295.36 125.53
  C 293.65 123.95 293.93 118.00 293.99 116.52"
/>
<path stroke="#929596" vector-effect="non-scaling-stroke" d="
  M 293.99 116.52
  Q 295.96 98.03 293.07 79.75
  C 291.60 70.49 287.84 59.80 285.37 49.71
  C 284.12 44.65 288.27 44.64 291.67 44.13
  A 1.10 1.10 0.0 0 0 292.54 42.65
  Q 291.76 40.60 290.11 39.44
  C 271.21 26.18 250.73 10.38 225.77 15.55
  Q 219.06 16.95 212.49 18.92
  Q 210.67 19.47 209.23 19.15
  A 1.13 1.13 0.0 0 1 208.56 17.40
  Q 211.12 13.77 212.26 9.47
  A 1.14 1.14 0.0 0 0 211.00 8.04
  Q 205.65 8.79 200.47 11.47
  C 191.28 16.22 182.95 21.61 174.42 27.40
  C 148.43 45.01 141.98 70.43 140.45 100.19
  C 140.16 105.80 141.15 111.60 141.84 117.30"
/>
<path stroke="#9a866c" vector-effect="non-scaling-stroke" d="
  M 293.99 116.52
  C 293.24 121.29 292.50 125.70 290.66 130.31
  C 287.05 139.36 283.85 148.38 279.70 157.23
  Q 278.92 158.88 277.04 159.70
  A 1.29 1.28 73.5 0 1 275.26 158.73
  Q 275.04 157.45 275.10 155.75
  C 275.30 150.27 275.91 144.66 275.90 139.40
  Q 275.87 126.58 275.75 113.75
  C 275.65 102.33 272.72 88.15 266.11 78.63
  C 262.89 74.00 256.38 73.95 250.75 74.56
  C 239.31 75.78 227.78 79.46 215.29 78.34
  C 204.89 77.41 192.27 74.74 184.25 74.25
  C 177.32 73.82 170.87 75.15 167.66 81.43
  C 160.35 95.73 158.81 113.69 159.14 129.50
  Q 159.16 130.48 160.22 141.96
  Q 160.99 150.40 160.02 159.10
  A 0.78 0.78 0.0 0 1 159.06 159.77
  Q 157.62 159.42 156.81 157.96
  C 152.41 149.97 149.23 141.68 145.83 133.25
  Q 143.30 126.98 141.84 117.30"
/>
<path stroke="#9a866c" vector-effect="non-scaling-stroke" d="
  M 285.17 181.85
  Q 284.94 180.63 285.16 179.32
  Q 285.25 178.73 284.73 179.02
  Q 283.06 179.93 282.39 181.51
  Q 279.47 188.40 276.69 196.75
  Q 275.56 200.16 273.87 202.96
  C 267.12 214.13 257.22 229.56 241.50 223.48
  C 238.04 222.15 235.48 219.23 232.87 216.51
  A 1.27 1.27 0.0 0 0 230.69 217.26
  C 230.00 223.92 229.41 229.35 222.99 232.80
  C 220.85 233.95 218.52 235.25 216.75 234.74
  Q 208.97 232.46 205.95 224.34
  C 205.29 222.56 205.53 220.54 205.17 218.84
  Q 204.59 216.09 202.28 217.70
  C 198.94 220.04 195.13 223.26 191.68 224.32
  C 178.89 228.24 166.85 212.46 161.67 203.00
  Q 159.30 198.66 154.57 185.33
  C 153.97 183.65 152.81 182.40 151.72 181.05
  A 0.46 0.46 0.0 0 0 150.90 181.35
  L 150.96 183.46"
/>
<path stroke="#90775f" vector-effect="non-scaling-stroke" d="
  M 273.26 214.72
  Q 270.48 218.56 267.86 222.39
  C 259.55 234.55 249.56 241.71 236.10 247.49
  C 230.70 249.81 226.68 251.84 222.02 254.25
  C 219.63 255.48 217.76 255.85 215.13 254.68
  Q 202.45 249.00 190.08 242.65
  C 178.51 236.72 168.62 225.39 162.34 214.34"
/>
<path stroke="#8f8986" vector-effect="non-scaling-stroke" d="
  M 296.33 255.83
  Q 295.04 255.80 294.55 258.16
  Q 294.21 259.80 293.67 260.80
  C 292.03 263.85 290.57 267.09 288.80 269.84
  C 278.04 286.55 259.87 301.15 241.74 307.22
  C 214.92 316.21 189.28 309.95 169.60 290.51
  Q 154.65 275.73 146.06 256.76
  Q 145.64 255.83 146.20 254.79
  Q 146.40 254.41 145.97 254.35
  L 144.76 254.20"
/>
</g>
<path fill="#e8f4fd" d="
  M 0.00 0.00
  L 433.00 0.00
  L 433.00 482.00
  L 0.00 482.00
  L 0.00 0.00
  Z
  M 141.84 117.30
  Q 141.55 118.28 141.40 116.33
  Q 141.40 116.27 141.39 116.33
  Q 141.05 117.82 141.40 119.33
  Q 141.52 119.81 141.10 120.08
  C 138.60 121.64 138.34 125.17 137.15 127.65
  C 133.75 134.69 132.02 141.13 133.79 148.26
  C 134.93 152.85 135.83 157.80 137.84 161.87
  Q 141.49 169.32 147.14 175.43
  C 149.40 177.87 150.19 180.43 150.96 183.46
  C 153.40 194.00 157.74 204.48 162.34 214.34
  Q 163.02 218.25 162.25 222.42
  Q 161.47 226.65 161.45 228.67
  C 161.42 234.58 161.69 238.95 158.90 244.94
  C 155.81 251.59 150.85 252.13 144.76 254.20
  C 121.80 259.50 97.79 263.57 76.57 273.36
  C 44.62 288.10 22.88 318.89 21.87 354.74
  Q 21.60 364.21 21.97 367.50
  Q 23.85 384.35 32.39 398.91
  C 40.22 412.25 53.50 421.31 67.60 427.62
  Q 74.56 430.74 80.20 435.71
  Q 84.72 439.68 86.91 441.04
  Q 95.33 446.26 104.77 449.50
  Q 125.77 456.70 147.76 459.76
  C 160.82 461.57 178.29 463.55 193.25 463.94
  C 202.40 464.18 213.56 465.34 223.77 464.75
  Q 236.06 464.05 239.25 463.97
  Q 278.08 463.07 314.87 454.39
  Q 331.58 450.44 347.70 441.71
  Q 349.93 440.51 356.74 433.74
  C 357.58 432.90 359.19 431.80 360.51 431.27
  Q 374.55 425.65 386.82 416.80
  C 409.37 400.55 416.67 371.64 413.10 346.63
  C 408.91 317.21 393.04 291.92 366.73 277.52
  C 345.02 265.63 320.67 260.53 296.33 255.83
  Q 289.58 253.81 282.60 251.27
  C 273.76 248.06 273.43 228.49 272.78 220.76
  C 272.61 218.71 273.03 216.78 273.26 214.72
  Q 275.05 210.37 277.09 206.03
  C 280.75 198.25 282.97 189.98 285.17 181.85
  C 286.02 175.35 290.29 173.51 293.42 168.75
  Q 299.63 159.33 302.03 146.02
  Q 304.24 133.77 295.36 125.53
  C 293.65 123.95 293.93 118.00 293.99 116.52
  Q 295.96 98.03 293.07 79.75
  C 291.60 70.49 287.84 59.80 285.37 49.71
  C 284.12 44.65 288.27 44.64 291.67 44.13
  A 1.10 1.10 0.0 0 0 292.54 42.65
  Q 291.76 40.60 290.11 39.44
  C 271.21 26.18 250.73 10.38 225.77 15.55
  Q 219.06 16.95 212.49 18.92
  Q 210.67 19.47 209.23 19.15
  A 1.13 1.13 0.0 0 1 208.56 17.40
  Q 211.12 13.77 212.26 9.47
  A 1.14 1.14 0.0 0 0 211.00 8.04
  Q 205.65 8.79 200.47 11.47
  C 191.28 16.22 182.95 21.61 174.42 27.40
  C 148.43 45.01 141.98 70.43 140.45 100.19
  C 140.16 105.80 141.15 111.60 141.84 117.30
  Z"
/>
<path fill="#3c362f" d="
  M 293.99 116.52
  C 293.24 121.29 292.50 125.70 290.66 130.31
  C 287.05 139.36 283.85 148.38 279.70 157.23
  Q 278.92 158.88 277.04 159.70
  A 1.29 1.28 73.5 0 1 275.26 158.73
  Q 275.04 157.45 275.10 155.75
  C 275.30 150.27 275.91 144.66 275.90 139.40
  Q 275.87 126.58 275.75 113.75
  C 275.65 102.33 272.72 88.15 266.11 78.63
  C 262.89 74.00 256.38 73.95 250.75 74.56
  C 239.31 75.78 227.78 79.46 215.29 78.34
  C 204.89 77.41 192.27 74.74 184.25 74.25
  C 177.32 73.82 170.87 75.15 167.66 81.43
  C 160.35 95.73 158.81 113.69 159.14 129.50
  Q 159.16 130.48 160.22 141.96
  Q 160.99 150.40 160.02 159.10
  A 0.78 0.78 0.0 0 1 159.06 159.77
  Q 157.62 159.42 156.81 157.96
  C 152.41 149.97 149.23 141.68 145.83 133.25
  Q 143.30 126.98 141.84 117.30
  C 141.15 111.60 140.16 105.80 140.45 100.19
  C 141.98 70.43 148.43 45.01 174.42 27.40
  C 182.95 21.61 191.28 16.22 200.47 11.47
  Q 205.65 8.79 211.00 8.04
  A 1.14 1.14 0.0 0 1 212.26 9.47
  Q 211.12 13.77 208.56 17.40
  A 1.13 1.13 0.0 0 0 209.23 19.15
  Q 210.67 19.47 212.49 18.92
  Q 219.06 16.95 225.77 15.55
  C 250.73 10.38 271.21 26.18 290.11 39.44
  Q 291.76 40.60 292.54 42.65
  A 1.10 1.10 0.0 0 1 291.67 44.13
  C 288.27 44.64 284.12 44.65 285.37 49.71
  C 287.84 59.80 291.60 70.49 293.07 79.75
  Q 295.96 98.03 293.99 116.52
  Z"
/>
<path fill="#f7d5a9" d="
  M 293.99 116.52
  C 293.93 118.00 293.65 123.95 295.36 125.53
  Q 304.24 133.77 302.03 146.02
  Q 299.63 159.33 293.42 168.75
  C 290.29 173.51 286.02 175.35 285.17 181.85
  Q 284.94 180.63 285.16 179.32
  Q 285.25 178.73 284.73 179.02
  Q 283.06 179.93 282.39 181.51
  Q 279.47 188.40 276.69 196.75
  Q 275.56 200.16 273.87 202.96
  C 267.12 214.13 257.22 229.56 241.50 223.48
  C 238.04 222.15 235.48 219.23 232.87 216.51
  A 1.27 1.27 0.0 0 0 230.69 217.26
  C 230.00 223.92 229.41 229.35 222.99 232.80
  C 220.85 233.95 218.52 235.25 216.75 234.74
  Q 208.97 232.46 205.95 224.34
  C 205.29 222.56 205.53 220.54 205.17 218.84
  Q 204.59 216.09 202.28 217.70
  C 198.94 220.04 195.13 223.26 191.68 224.32
  C 178.89 228.24 166.85 212.46 161.67 203.00
  Q 159.30 198.66 154.57 185.33
  C 153.97 183.65 152.81 182.40 151.72 181.05
  A 0.46 0.46 0.0 0 0 150.90 181.35
  L 150.96 183.46
  C 150.19 180.43 149.40 177.87 147.14 175.43
  Q 141.49 169.32 137.84 161.87
  C 135.83 157.80 134.93 152.85 133.79 148.26
  C 132.02 141.13 133.75 134.69 137.15 127.65
  C 138.34 125.17 138.60 121.64 141.10 120.08
  Q 141.52 119.81 141.40 119.33
  Q 141.05 117.82 141.39 116.33
  Q 141.40 116.27 141.40 116.33
  Q 141.55 118.28 141.84 117.30
  Q 143.30 126.98 145.83 133.25
  C 149.23 141.68 152.41 149.97 156.81 157.96
  Q 157.62 159.42 159.06 159.77
  A 0.78 0.78 0.0 0 0 160.02 159.10
  Q 160.99 150.40 160.22 141.96
  Q 159.16 130.48 159.14 129.50
  C 158.81 113.69 160.35 95.73 167.66 81.43
  C 170.87 75.15 177.32 73.82 184.25 74.25
  C 192.27 74.74 204.89 77.41 215.29 78.34
  C 227.78 79.46 239.31 75.78 250.75 74.56
  C 256.38 73.95 262.89 74.00 266.11 78.63
  C 272.72 88.15 275.65 102.33 275.75 113.75
  Q 275.87 126.58 275.90 139.40
  C 275.91 144.66 275.30 150.27 275.10 155.75
  Q 275.04 157.45 275.26 158.73
  A 1.29 1.28 73.5 0 0 277.04 159.70
  Q 278.92 158.88 279.70 157.23
  C 283.85 148.38 287.05 139.36 290.66 130.31
  C 292.50 125.70 293.24 121.29 293.99 116.52
  Z"
/>
<path fill="#3c362f" d="
  M 285.17 181.85
  C 282.97 189.98 280.75 198.25 277.09 206.03
  Q 275.05 210.37 273.26 214.72
  Q 270.48 218.56 267.86 222.39
  C 259.55 234.55 249.56 241.71 236.10 247.49
  C 230.70 249.81 226.68 251.84 222.02 254.25
  C 219.63 255.48 217.76 255.85 215.13 254.68
  Q 202.45 249.00 190.08 242.65
  C 178.51 236.72 168.62 225.39 162.34 214.34
  C 157.74 204.48 153.40 194.00 150.96 183.46
  L 150.90 181.35
  A 0.46 0.46 0.0 0 1 151.72 181.05
  C 152.81 182.40 153.97 183.65 154.57 185.33
  Q 159.30 198.66 161.67 203.00
  C 166.85 212.46 178.89 228.24 191.68 224.32
  C 195.13 223.26 198.94 220.04 202.28 217.70
  Q 204.59 216.09 205.17 218.84
  C 205.53 220.54 205.29 222.56 205.95 224.34
  Q 208.97 232.46 216.75 234.74
  C 218.52 235.25 220.85 233.95 222.99 232.80
  C 229.41 229.35 230.00 223.92 230.69 217.26
  A 1.27 1.27 0.0 0 1 232.87 216.51
  C 235.48 219.23 238.04 222.15 241.50 223.48
  C 257.22 229.56 267.12 214.13 273.87 202.96
  Q 275.56 200.16 276.69 196.75
  Q 279.47 188.40 282.39 181.51
  Q 283.06 179.93 284.73 179.02
  Q 285.25 178.73 285.16 179.32
  Q 284.94 180.63 285.17 181.85
  Z"
/>
<path fill="#e3b78e" d="
  M 162.34 214.34
  C 168.62 225.39 178.51 236.72 190.08 242.65
  Q 202.45 249.00 215.13 254.68
  C 217.76 255.85 219.63 255.48 222.02 254.25
  C 226.68 251.84 230.70 249.81 236.10 247.49
  C 249.56 241.71 259.55 234.55 267.86 222.39
  Q 270.48 218.56 273.26 214.72
  C 273.03 216.78 272.61 218.71 272.78 220.76
  C 273.43 228.49 273.76 248.06 282.60 251.27
  Q 289.58 253.81 296.33 255.83
  Q 295.04 255.80 294.55 258.16
  Q 294.21 259.80 293.67 260.80
  C 292.03 263.85 290.57 267.09 288.80 269.84
  C 278.04 286.55 259.87 301.15 241.74 307.22
  C 214.92 316.21 189.28 309.95 169.60 290.51
  Q 154.65 275.73 146.06 256.76
  Q 145.64 255.83 146.20 254.79
  Q 146.40 254.41 145.97 254.35
  L 144.76 254.20
  C 150.85 252.13 155.81 251.59 158.90 244.94
  C 161.69 238.95 161.42 234.58 161.45 228.67
  Q 161.47 226.65 162.25 222.42
  Q 163.02 218.25 162.34 214.34
  Z"
/>
<path fill="#3a5b7e" d="
  M 144.76 254.20
  L 145.97 254.35
  Q 146.40 254.41 146.20 254.79
  Q 145.64 255.83 146.06 256.76
  Q 154.65 275.73 169.60 290.51
  C 189.28 309.95 214.92 316.21 241.74 307.22
  C 259.87 301.15 278.04 286.55 288.80 269.84
  C 290.57 267.09 292.03 263.85 293.67 260.80
  Q 294.21 259.80 294.55 258.16
  Q 295.04 255.80 296.33 255.83
  C 320.67 260.53 345.02 265.63 366.73 277.52
  C 393.04 291.92 408.91 317.21 413.10 346.63
  C 416.67 371.64 409.37 400.55 386.82 416.80
  Q 374.55 425.65 360.51 431.27
  C 359.19 431.80 357.58 432.90 356.74 433.74
  Q 349.93 440.51 347.70 441.71
  Q 331.58 450.44 314.87 454.39
  Q 278.08 463.07 239.25 463.97
  Q 236.06 464.05 223.77 464.75
  C 213.56 465.34 202.40 464.18 193.25 463.94
  C 178.29 463.55 160.82 461.57 147.76 459.76
  Q 125.77 456.70 104.77 449.50
  Q 95.33 446.26 86.91 441.04
  Q 84.72 439.68 80.20 435.71
  Q 74.56 430.74 67.60 427.62
  C 53.50 421.31 40.22 412.25 32.39 398.91
  Q 23.85 384.35 21.97 367.50
  Q 21.60 364.21 21.87 354.74
  C 22.88 318.89 44.62 288.10 76.57 273.36
  C 97.79 263.57 121.80 259.50 144.76 254.20
  Z"
/>
</svg>
